<mxfile host="app.diagrams.net" modified="2023-02-10T05:23:27.438Z" agent="5.0 (Windows NT 10.0; Win64; x64) AppleWebKit/537.36 (KHTML, like Gecko) Chrome/109.0.0.0 Safari/537.36" etag="TU5B_Kk9SgIcH5kjcfXF" version="20.8.15" type="github">
  <diagram name="第 1 页" id="_2f5QNMzvRTS557bPFPs">
    <mxGraphModel dx="916" dy="529" grid="1" gridSize="10" guides="1" tooltips="1" connect="1" arrows="1" fold="1" page="1" pageScale="1" pageWidth="440" pageHeight="330" math="0" shadow="0">
      <root>
        <mxCell id="0" />
        <mxCell id="1" parent="0" />
        <mxCell id="7nCtvXywuRJka1eDzNRe-1" value="&lt;p style=&quot;line-height: 0%;&quot;&gt;&lt;font face=&quot;Comic Sans MS&quot; style=&quot;font-size: 11px;&quot;&gt;A basket&lt;/font&gt;&lt;/p&gt;&lt;p style=&quot;line-height: 0%;&quot;&gt;&lt;font face=&quot;Comic Sans MS&quot; style=&quot;font-size: 11px;&quot;&gt;(i.e., a set of items)&lt;/font&gt;&lt;/p&gt;" style="text;strokeColor=none;align=center;fillColor=none;html=1;verticalAlign=middle;whiteSpace=wrap;rounded=0;dashed=1;" vertex="1" parent="1">
          <mxGeometry x="44.5" y="286" width="156" height="33.5" as="geometry" />
        </mxCell>
        <mxCell id="7nCtvXywuRJka1eDzNRe-2" value="&lt;p style=&quot;line-height: 0%;&quot;&gt;&lt;font face=&quot;Comic Sans MS&quot; style=&quot;font-size: 11px;&quot;&gt;Basket&lt;/font&gt;&lt;/p&gt;&lt;p style=&quot;line-height: 0%;&quot;&gt;&lt;font face=&quot;Comic Sans MS&quot; style=&quot;font-size: 11px;&quot;&gt;sequence&lt;/font&gt;&lt;/p&gt;" style="text;strokeColor=none;align=center;fillColor=none;html=1;verticalAlign=middle;whiteSpace=wrap;rounded=0;dashed=1;" vertex="1" parent="1">
          <mxGeometry x="16" y="244" width="60" height="30" as="geometry" />
        </mxCell>
        <mxCell id="7nCtvXywuRJka1eDzNRe-7" value="&lt;p style=&quot;line-height: 0%;&quot;&gt;&lt;font face=&quot;Comic Sans MS&quot; style=&quot;font-size: 11px;&quot;&gt;Basket&lt;/font&gt;&lt;/p&gt;&lt;p style=&quot;line-height: 0%;&quot;&gt;&lt;font face=&quot;Comic Sans MS&quot;&gt;&lt;span style=&quot;font-size: 11px;&quot;&gt;representation&lt;/span&gt;&lt;/font&gt;&lt;/p&gt;" style="text;strokeColor=none;align=center;fillColor=none;html=1;verticalAlign=middle;whiteSpace=wrap;rounded=0;dashed=1;" vertex="1" parent="1">
          <mxGeometry x="16" y="180" width="60" height="30" as="geometry" />
        </mxCell>
        <mxCell id="7nCtvXywuRJka1eDzNRe-9" value="" style="group;fillColor=#d5e8d4;strokeColor=#82b366;" vertex="1" connectable="0" parent="1">
          <mxGeometry x="180.5" y="186" width="40" height="20" as="geometry" />
        </mxCell>
        <mxCell id="7nCtvXywuRJka1eDzNRe-10" value="" style="rounded=0;whiteSpace=wrap;html=1;fontFamily=Comic Sans MS;fontSize=11;fillColor=#d5e8d4;strokeColor=#82b366;" vertex="1" parent="7nCtvXywuRJka1eDzNRe-9">
          <mxGeometry width="40" height="20" as="geometry" />
        </mxCell>
        <mxCell id="7nCtvXywuRJka1eDzNRe-11" value="" style="endArrow=none;html=1;rounded=0;fontFamily=Comic Sans MS;fontSize=11;entryX=0.5;entryY=0;entryDx=0;entryDy=0;exitX=0.5;exitY=1;exitDx=0;exitDy=0;fillColor=#d5e8d4;strokeColor=#82b366;" edge="1" parent="7nCtvXywuRJka1eDzNRe-9" source="7nCtvXywuRJka1eDzNRe-10" target="7nCtvXywuRJka1eDzNRe-10">
          <mxGeometry width="50" height="50" relative="1" as="geometry">
            <mxPoint x="-50" y="90" as="sourcePoint" />
            <mxPoint y="40" as="targetPoint" />
          </mxGeometry>
        </mxCell>
        <mxCell id="7nCtvXywuRJka1eDzNRe-13" value="" style="group;fillColor=#d5e8d4;strokeColor=#82b366;" vertex="1" connectable="0" parent="1">
          <mxGeometry x="273.5" y="186" width="40" height="20" as="geometry" />
        </mxCell>
        <mxCell id="7nCtvXywuRJka1eDzNRe-14" value="" style="rounded=0;whiteSpace=wrap;html=1;fontFamily=Comic Sans MS;fontSize=11;fillColor=#d5e8d4;strokeColor=#82b366;" vertex="1" parent="7nCtvXywuRJka1eDzNRe-13">
          <mxGeometry width="40" height="20" as="geometry" />
        </mxCell>
        <mxCell id="7nCtvXywuRJka1eDzNRe-15" value="" style="endArrow=none;html=1;rounded=0;fontFamily=Comic Sans MS;fontSize=11;entryX=0.5;entryY=0;entryDx=0;entryDy=0;exitX=0.5;exitY=1;exitDx=0;exitDy=0;fillColor=#d5e8d4;strokeColor=#82b366;" edge="1" parent="7nCtvXywuRJka1eDzNRe-13" source="7nCtvXywuRJka1eDzNRe-14" target="7nCtvXywuRJka1eDzNRe-14">
          <mxGeometry width="50" height="50" relative="1" as="geometry">
            <mxPoint x="-50" y="90" as="sourcePoint" />
            <mxPoint y="40" as="targetPoint" />
          </mxGeometry>
        </mxCell>
        <mxCell id="7nCtvXywuRJka1eDzNRe-17" value="&lt;p style=&quot;line-height: 0%;&quot;&gt;&lt;font face=&quot;Comic Sans MS&quot;&gt;&lt;span style=&quot;font-size: 11px;&quot;&gt;...&lt;/span&gt;&lt;/font&gt;&lt;/p&gt;" style="text;strokeColor=none;align=center;fillColor=none;html=1;verticalAlign=middle;whiteSpace=wrap;rounded=0;dashed=1;" vertex="1" parent="1">
          <mxGeometry x="232" y="237" width="30" height="30" as="geometry" />
        </mxCell>
        <mxCell id="7nCtvXywuRJka1eDzNRe-20" value="&lt;font face=&quot;Helvetica&quot;&gt;&lt;font style=&quot;font-size: 14px;&quot;&gt;Basket Sequence Encoder&lt;br&gt;(e.g, RNN)&lt;/font&gt;&lt;br&gt;&lt;/font&gt;" style="rounded=0;whiteSpace=wrap;html=1;fontFamily=Comic Sans MS;fontSize=11;fillColor=#dae8fc;strokeColor=#6c8ebf;" vertex="1" parent="1">
          <mxGeometry x="103" y="108" width="205" height="50" as="geometry" />
        </mxCell>
        <mxCell id="7nCtvXywuRJka1eDzNRe-23" value="" style="endArrow=classic;html=1;rounded=0;fontFamily=Comic Sans MS;fontSize=11;" edge="1" parent="1">
          <mxGeometry width="50" height="50" relative="1" as="geometry">
            <mxPoint x="125" y="182" as="sourcePoint" />
            <mxPoint x="125" y="161" as="targetPoint" />
            <Array as="points" />
          </mxGeometry>
        </mxCell>
        <mxCell id="7nCtvXywuRJka1eDzNRe-30" value="" style="endArrow=classic;html=1;rounded=0;fontFamily=Comic Sans MS;fontSize=11;entryX=0;entryY=0.5;entryDx=0;entryDy=0;exitX=1;exitY=0.5;exitDx=0;exitDy=0;" edge="1" parent="1">
          <mxGeometry width="50" height="50" relative="1" as="geometry">
            <mxPoint x="310" y="128" as="sourcePoint" />
            <mxPoint x="325.5" y="128" as="targetPoint" />
            <Array as="points" />
          </mxGeometry>
        </mxCell>
        <mxCell id="7nCtvXywuRJka1eDzNRe-31" value="&lt;p style=&quot;line-height: 0%;&quot;&gt;&lt;font face=&quot;Comic Sans MS&quot;&gt;&lt;span style=&quot;font-size: 11px;&quot;&gt;User&lt;/span&gt;&lt;/font&gt;&lt;/p&gt;&lt;p style=&quot;line-height: 0%;&quot;&gt;&lt;font face=&quot;Comic Sans MS&quot;&gt;&lt;span style=&quot;font-size: 11px;&quot;&gt;representation&lt;/span&gt;&lt;/font&gt;&lt;/p&gt;" style="text;strokeColor=none;align=center;fillColor=none;html=1;verticalAlign=middle;whiteSpace=wrap;rounded=0;dashed=1;" vertex="1" parent="1">
          <mxGeometry x="311.5" y="142" width="80" height="22" as="geometry" />
        </mxCell>
        <mxCell id="7nCtvXywuRJka1eDzNRe-32" value="" style="group" vertex="1" connectable="0" parent="1">
          <mxGeometry x="338" y="71" width="20" height="20" as="geometry" />
        </mxCell>
        <mxCell id="7nCtvXywuRJka1eDzNRe-33" value="" style="ellipse;whiteSpace=wrap;html=1;aspect=fixed;fontFamily=Comic Sans MS;fontSize=11;" vertex="1" parent="7nCtvXywuRJka1eDzNRe-32">
          <mxGeometry x="1" y="1" width="18" height="18" as="geometry" />
        </mxCell>
        <mxCell id="7nCtvXywuRJka1eDzNRe-34" value="" style="shape=waypoint;sketch=0;fillStyle=solid;size=6;pointerEvents=1;points=[];fillColor=none;resizable=0;rotatable=0;perimeter=centerPerimeter;snapToPoint=1;fontFamily=Comic Sans MS;fontSize=3;" vertex="1" parent="7nCtvXywuRJka1eDzNRe-32">
          <mxGeometry width="20" height="20" as="geometry" />
        </mxCell>
        <mxCell id="7nCtvXywuRJka1eDzNRe-35" value="" style="rounded=0;whiteSpace=wrap;html=1;fontFamily=Comic Sans MS;fontSize=11;fillColor=#b0e3e6;strokeColor=#0e8088;container=0;sketch=1;curveFitting=1;jiggle=2;" vertex="1" parent="1">
          <mxGeometry x="328" y="118" width="40" height="20" as="geometry" />
        </mxCell>
        <mxCell id="7nCtvXywuRJka1eDzNRe-36" value="" style="endArrow=none;html=1;rounded=0;fontFamily=Comic Sans MS;fontSize=11;entryX=0.5;entryY=0;entryDx=0;entryDy=0;exitX=0.5;exitY=1;exitDx=0;exitDy=0;fillColor=#b0e3e6;strokeColor=#0e8088;" edge="1" parent="1" source="7nCtvXywuRJka1eDzNRe-35" target="7nCtvXywuRJka1eDzNRe-35">
          <mxGeometry width="50" height="50" relative="1" as="geometry">
            <mxPoint x="83" y="35" as="sourcePoint" />
            <mxPoint x="133" y="-15" as="targetPoint" />
          </mxGeometry>
        </mxCell>
        <mxCell id="7nCtvXywuRJka1eDzNRe-37" value="" style="curved=1;endArrow=classic;html=1;rounded=1;fontFamily=Comic Sans MS;fontSize=3;startSize=1;endSize=6;exitX=0;exitY=0.5;exitDx=0;exitDy=0;" edge="1" parent="1" source="7nCtvXywuRJka1eDzNRe-58">
          <mxGeometry width="50" height="50" relative="1" as="geometry">
            <mxPoint x="348" y="-29" as="sourcePoint" />
            <mxPoint x="360" y="87" as="targetPoint" />
            <Array as="points">
              <mxPoint x="440" y="117" />
            </Array>
          </mxGeometry>
        </mxCell>
        <mxCell id="7nCtvXywuRJka1eDzNRe-57" value="" style="group" vertex="1" connectable="0" parent="1">
          <mxGeometry x="330.5" y="215" width="103" height="81" as="geometry" />
        </mxCell>
        <mxCell id="7nCtvXywuRJka1eDzNRe-58" value="" style="rounded=1;whiteSpace=wrap;html=1;dashed=1;direction=south;container=0;" vertex="1" parent="7nCtvXywuRJka1eDzNRe-57">
          <mxGeometry y="1" width="93.5" height="81" as="geometry" />
        </mxCell>
        <mxCell id="7nCtvXywuRJka1eDzNRe-59" value="" style="ellipse;whiteSpace=wrap;html=1;aspect=fixed;fillColor=#ffe6cc;strokeColor=#d79b00;container=0;" vertex="1" parent="7nCtvXywuRJka1eDzNRe-57">
          <mxGeometry x="5.1875" y="5.5" width="20" height="20" as="geometry" />
        </mxCell>
        <mxCell id="7nCtvXywuRJka1eDzNRe-60" value="" style="ellipse;whiteSpace=wrap;html=1;aspect=fixed;fillColor=#fad7ac;strokeColor=#b46504;container=0;" vertex="1" parent="7nCtvXywuRJka1eDzNRe-57">
          <mxGeometry x="30.1875" y="5.5" width="20" height="20" as="geometry" />
        </mxCell>
        <mxCell id="7nCtvXywuRJka1eDzNRe-64" value="" style="ellipse;whiteSpace=wrap;html=1;aspect=fixed;fillColor=#ffcc99;container=0;strokeColor=#36393d;" vertex="1" parent="7nCtvXywuRJka1eDzNRe-57">
          <mxGeometry x="67.4975" y="5.5" width="20" height="20" as="geometry" />
        </mxCell>
        <mxCell id="7nCtvXywuRJka1eDzNRe-65" value="&lt;p style=&quot;line-height: 0%;&quot;&gt;&lt;font face=&quot;Comic Sans MS&quot;&gt;&lt;span style=&quot;font-size: 11px;&quot;&gt;...&lt;/span&gt;&lt;/font&gt;&lt;/p&gt;" style="text;strokeColor=none;align=center;fillColor=none;html=1;verticalAlign=middle;whiteSpace=wrap;rounded=0;dashed=1;" vertex="1" parent="7nCtvXywuRJka1eDzNRe-57">
          <mxGeometry x="44.5" y="21" width="30" height="30" as="geometry" />
        </mxCell>
        <mxCell id="7nCtvXywuRJka1eDzNRe-69" value="&lt;p style=&quot;line-height: 0%;&quot;&gt;&lt;span style=&quot;font-size: 11px; font-family: &amp;quot;Comic Sans MS&amp;quot;; background-color: initial;&quot;&gt;Candidate items&lt;/span&gt;&lt;/p&gt;" style="text;strokeColor=none;align=center;fillColor=none;html=1;verticalAlign=middle;whiteSpace=wrap;rounded=0;dashed=1;" vertex="1" parent="7nCtvXywuRJka1eDzNRe-57">
          <mxGeometry x="-4" y="75" width="103" height="33.5" as="geometry" />
        </mxCell>
        <mxCell id="7nCtvXywuRJka1eDzNRe-116" value="" style="rhombus;whiteSpace=wrap;html=1;fontFamily=Comic Sans MS;fontSize=14;fillColor=#f8cecc;strokeColor=#b85450;container=0;" vertex="1" parent="7nCtvXywuRJka1eDzNRe-57">
          <mxGeometry x="5.189999999999998" y="31" width="20" height="20" as="geometry" />
        </mxCell>
        <mxCell id="7nCtvXywuRJka1eDzNRe-117" value="" style="rhombus;whiteSpace=wrap;html=1;fontFamily=Comic Sans MS;fontSize=14;fillColor=#f8cecc;strokeColor=#b85450;container=0;" vertex="1" parent="7nCtvXywuRJka1eDzNRe-57">
          <mxGeometry x="30.189999999999998" y="31.5" width="20" height="20" as="geometry" />
        </mxCell>
        <mxCell id="7nCtvXywuRJka1eDzNRe-70" value="&lt;p style=&quot;line-height: 0%;&quot;&gt;&lt;font face=&quot;Comic Sans MS&quot;&gt;&lt;span style=&quot;font-size: 11px;&quot;&gt;Predicting&lt;/span&gt;&lt;/font&gt;&lt;/p&gt;" style="text;strokeColor=none;align=center;fillColor=none;html=1;verticalAlign=middle;whiteSpace=wrap;rounded=0;dashed=1;" vertex="1" parent="1">
          <mxGeometry x="331.5" y="44" width="80" height="22" as="geometry" />
        </mxCell>
        <mxCell id="7nCtvXywuRJka1eDzNRe-71" value="" style="rounded=1;whiteSpace=wrap;html=1;dashed=1;direction=south;container=0;" vertex="1" parent="1">
          <mxGeometry x="122.5" y="40" width="149.5" height="26" as="geometry" />
        </mxCell>
        <mxCell id="7nCtvXywuRJka1eDzNRe-72" value="" style="curved=1;endArrow=classic;html=1;rounded=1;fontFamily=Comic Sans MS;fontSize=3;startSize=1;endSize=6;" edge="1" parent="1">
          <mxGeometry width="50" height="50" relative="1" as="geometry">
            <mxPoint x="338" y="73" as="sourcePoint" />
            <mxPoint x="278" y="53" as="targetPoint" />
            <Array as="points">
              <mxPoint x="328" y="53" />
            </Array>
          </mxGeometry>
        </mxCell>
        <mxCell id="7nCtvXywuRJka1eDzNRe-73" value="&lt;p style=&quot;line-height: 0%;&quot;&gt;&lt;span style=&quot;font-size: 11px; font-family: &amp;quot;Comic Sans MS&amp;quot;; background-color: initial;&quot;&gt;Next basket&lt;/span&gt;&lt;/p&gt;" style="text;strokeColor=none;align=center;fillColor=none;html=1;verticalAlign=middle;whiteSpace=wrap;rounded=0;dashed=1;" vertex="1" parent="1">
          <mxGeometry x="157.5" y="66" width="103" height="23.5" as="geometry" />
        </mxCell>
        <mxCell id="7nCtvXywuRJka1eDzNRe-74" value="" style="ellipse;whiteSpace=wrap;html=1;aspect=fixed;fillColor=#ffe6cc;strokeColor=#d79b00;container=0;" vertex="1" parent="1">
          <mxGeometry x="125.6875" y="43.5" width="20" height="20" as="geometry" />
        </mxCell>
        <mxCell id="7nCtvXywuRJka1eDzNRe-75" value="" style="ellipse;whiteSpace=wrap;html=1;aspect=fixed;fillColor=#fad7ac;strokeColor=#b46504;container=0;" vertex="1" parent="1">
          <mxGeometry x="150.6875" y="43.5" width="20" height="20" as="geometry" />
        </mxCell>
        <mxCell id="7nCtvXywuRJka1eDzNRe-76" value="" style="ellipse;whiteSpace=wrap;html=1;aspect=fixed;fillColor=#ffcc99;container=0;strokeColor=#36393d;" vertex="1" parent="1">
          <mxGeometry x="174.9975" y="43.5" width="20" height="20" as="geometry" />
        </mxCell>
        <mxCell id="7nCtvXywuRJka1eDzNRe-77" value="" style="ellipse;whiteSpace=wrap;html=1;aspect=fixed;fillColor=#fff2cc;strokeColor=#d6b656;container=0;" vertex="1" parent="1">
          <mxGeometry x="199" y="43" width="20" height="20" as="geometry" />
        </mxCell>
        <mxCell id="7nCtvXywuRJka1eDzNRe-78" value="" style="ellipse;whiteSpace=wrap;html=1;aspect=fixed;fillColor=#fff2cc;strokeColor=#d6b656;container=0;gradientColor=#ffd966;" vertex="1" parent="1">
          <mxGeometry x="223.5" y="43.5" width="20" height="20" as="geometry" />
        </mxCell>
        <mxCell id="7nCtvXywuRJka1eDzNRe-79" value="" style="ellipse;whiteSpace=wrap;html=1;aspect=fixed;fillColor=#FFE599;strokeColor=#d6b656;container=0;" vertex="1" parent="1">
          <mxGeometry x="249" y="43.5" width="20" height="20" as="geometry" />
        </mxCell>
        <mxCell id="7nCtvXywuRJka1eDzNRe-86" value="" style="rounded=1;whiteSpace=wrap;html=1;dashed=1;direction=south;container=0;" vertex="1" parent="1">
          <mxGeometry x="95" y="233.5" width="60" height="47.5" as="geometry" />
        </mxCell>
        <mxCell id="7nCtvXywuRJka1eDzNRe-87" value="" style="ellipse;whiteSpace=wrap;html=1;aspect=fixed;fillColor=#ffe6cc;strokeColor=#d79b00;container=0;" vertex="1" parent="1">
          <mxGeometry x="99" y="236.5" width="20" height="20" as="geometry" />
        </mxCell>
        <mxCell id="7nCtvXywuRJka1eDzNRe-88" value="" style="triangle;whiteSpace=wrap;html=1;fontFamily=Comic Sans MS;fontSize=14;direction=north;fillColor=#fff2cc;strokeColor=#d6b656;container=0;" vertex="1" parent="1">
          <mxGeometry x="115.5" y="258" width="20" height="20" as="geometry" />
        </mxCell>
        <mxCell id="7nCtvXywuRJka1eDzNRe-89" value="" style="rhombus;whiteSpace=wrap;html=1;fontFamily=Comic Sans MS;fontSize=14;fillColor=#f8cecc;strokeColor=#b85450;container=0;" vertex="1" parent="1">
          <mxGeometry x="131" y="236" width="20" height="20" as="geometry" />
        </mxCell>
        <mxCell id="7nCtvXywuRJka1eDzNRe-94" value="" style="rounded=1;whiteSpace=wrap;html=1;dashed=1;direction=south;container=0;" vertex="1" parent="1">
          <mxGeometry x="169" y="233.5" width="60" height="47.5" as="geometry" />
        </mxCell>
        <mxCell id="7nCtvXywuRJka1eDzNRe-95" value="" style="ellipse;whiteSpace=wrap;html=1;aspect=fixed;fillColor=#ffe6cc;strokeColor=#d79b00;container=0;" vertex="1" parent="1">
          <mxGeometry x="173" y="236.5" width="20" height="20" as="geometry" />
        </mxCell>
        <mxCell id="7nCtvXywuRJka1eDzNRe-96" value="" style="triangle;whiteSpace=wrap;html=1;fontFamily=Comic Sans MS;fontSize=14;direction=north;fillColor=#fff2cc;strokeColor=#d6b656;container=0;" vertex="1" parent="1">
          <mxGeometry x="189.5" y="258" width="20" height="20" as="geometry" />
        </mxCell>
        <mxCell id="7nCtvXywuRJka1eDzNRe-97" value="" style="rhombus;whiteSpace=wrap;html=1;fontFamily=Comic Sans MS;fontSize=14;fillColor=#f8cecc;strokeColor=#b85450;container=0;" vertex="1" parent="1">
          <mxGeometry x="205" y="236" width="20" height="20" as="geometry" />
        </mxCell>
        <mxCell id="7nCtvXywuRJka1eDzNRe-98" value="" style="rounded=1;whiteSpace=wrap;html=1;dashed=1;direction=south;container=0;" vertex="1" parent="1">
          <mxGeometry x="263" y="233.5" width="60" height="47.5" as="geometry" />
        </mxCell>
        <mxCell id="7nCtvXywuRJka1eDzNRe-99" value="" style="ellipse;whiteSpace=wrap;html=1;aspect=fixed;fillColor=#ffe6cc;strokeColor=#d79b00;container=0;" vertex="1" parent="1">
          <mxGeometry x="267" y="236.5" width="20" height="20" as="geometry" />
        </mxCell>
        <mxCell id="7nCtvXywuRJka1eDzNRe-100" value="" style="triangle;whiteSpace=wrap;html=1;fontFamily=Comic Sans MS;fontSize=14;direction=north;fillColor=#fff2cc;strokeColor=#d6b656;container=0;" vertex="1" parent="1">
          <mxGeometry x="283.5" y="258" width="20" height="20" as="geometry" />
        </mxCell>
        <mxCell id="7nCtvXywuRJka1eDzNRe-101" value="" style="rhombus;whiteSpace=wrap;html=1;fontFamily=Comic Sans MS;fontSize=14;fillColor=#f8cecc;strokeColor=#b85450;container=0;" vertex="1" parent="1">
          <mxGeometry x="299" y="236" width="20" height="20" as="geometry" />
        </mxCell>
        <mxCell id="7nCtvXywuRJka1eDzNRe-102" value="" style="endArrow=classic;html=1;rounded=0;fontFamily=Comic Sans MS;fontSize=11;" edge="1" parent="1">
          <mxGeometry width="50" height="50" relative="1" as="geometry">
            <mxPoint x="200" y="182" as="sourcePoint" />
            <mxPoint x="200" y="161" as="targetPoint" />
            <Array as="points" />
          </mxGeometry>
        </mxCell>
        <mxCell id="7nCtvXywuRJka1eDzNRe-103" value="" style="endArrow=classic;html=1;rounded=0;fontFamily=Comic Sans MS;fontSize=11;" edge="1" parent="1">
          <mxGeometry width="50" height="50" relative="1" as="geometry">
            <mxPoint x="295" y="182" as="sourcePoint" />
            <mxPoint x="295" y="161" as="targetPoint" />
            <Array as="points" />
          </mxGeometry>
        </mxCell>
        <mxCell id="7nCtvXywuRJka1eDzNRe-105" value="" style="endArrow=classic;html=1;rounded=0;fontFamily=Comic Sans MS;fontSize=11;" edge="1" parent="1">
          <mxGeometry width="50" height="50" relative="1" as="geometry">
            <mxPoint x="200" y="230" as="sourcePoint" />
            <mxPoint x="200" y="209" as="targetPoint" />
            <Array as="points" />
          </mxGeometry>
        </mxCell>
        <mxCell id="7nCtvXywuRJka1eDzNRe-106" value="" style="endArrow=classic;html=1;rounded=0;fontFamily=Comic Sans MS;fontSize=11;" edge="1" parent="1">
          <mxGeometry width="50" height="50" relative="1" as="geometry">
            <mxPoint x="294" y="230" as="sourcePoint" />
            <mxPoint x="294" y="209" as="targetPoint" />
            <Array as="points" />
          </mxGeometry>
        </mxCell>
        <mxCell id="7nCtvXywuRJka1eDzNRe-109" value="" style="endArrow=classic;html=1;rounded=0;fontFamily=Comic Sans MS;fontSize=11;" edge="1" parent="1">
          <mxGeometry width="50" height="50" relative="1" as="geometry">
            <mxPoint x="125" y="231" as="sourcePoint" />
            <mxPoint x="125" y="210" as="targetPoint" />
            <Array as="points" />
          </mxGeometry>
        </mxCell>
        <mxCell id="7nCtvXywuRJka1eDzNRe-110" value="" style="group;fillColor=#d5e8d4;strokeColor=#82b366;" vertex="1" connectable="0" parent="1">
          <mxGeometry x="105.5" y="186" width="40" height="20" as="geometry" />
        </mxCell>
        <mxCell id="7nCtvXywuRJka1eDzNRe-111" value="" style="rounded=0;whiteSpace=wrap;html=1;fontFamily=Comic Sans MS;fontSize=11;fillColor=#d5e8d4;strokeColor=#82b366;" vertex="1" parent="7nCtvXywuRJka1eDzNRe-110">
          <mxGeometry width="40" height="20" as="geometry" />
        </mxCell>
        <mxCell id="7nCtvXywuRJka1eDzNRe-112" value="" style="endArrow=none;html=1;rounded=0;fontFamily=Comic Sans MS;fontSize=11;entryX=0.5;entryY=0;entryDx=0;entryDy=0;exitX=0.5;exitY=1;exitDx=0;exitDy=0;fillColor=#d5e8d4;strokeColor=#82b366;" edge="1" parent="7nCtvXywuRJka1eDzNRe-110" source="7nCtvXywuRJka1eDzNRe-111" target="7nCtvXywuRJka1eDzNRe-111">
          <mxGeometry width="50" height="50" relative="1" as="geometry">
            <mxPoint x="-50" y="90" as="sourcePoint" />
            <mxPoint y="40" as="targetPoint" />
          </mxGeometry>
        </mxCell>
        <mxCell id="7nCtvXywuRJka1eDzNRe-113" value="&lt;p style=&quot;line-height: 0%;&quot;&gt;&lt;font face=&quot;Comic Sans MS&quot;&gt;&lt;span style=&quot;font-size: 11px;&quot;&gt;...&lt;/span&gt;&lt;/font&gt;&lt;/p&gt;" style="text;strokeColor=none;align=center;fillColor=none;html=1;verticalAlign=middle;whiteSpace=wrap;rounded=0;dashed=1;" vertex="1" parent="1">
          <mxGeometry x="232" y="179" width="30" height="30" as="geometry" />
        </mxCell>
        <mxCell id="7nCtvXywuRJka1eDzNRe-118" value="" style="rhombus;whiteSpace=wrap;html=1;fontFamily=Comic Sans MS;fontSize=14;fillColor=#f8cecc;strokeColor=#b85450;container=0;" vertex="1" parent="1">
          <mxGeometry x="397.69" y="245.5" width="20" height="20" as="geometry" />
        </mxCell>
        <mxCell id="7nCtvXywuRJka1eDzNRe-119" value="" style="triangle;whiteSpace=wrap;html=1;fontFamily=Comic Sans MS;fontSize=14;direction=north;fillColor=#fff2cc;strokeColor=#d6b656;container=0;" vertex="1" parent="1">
          <mxGeometry x="335.5" y="270" width="20" height="20" as="geometry" />
        </mxCell>
        <mxCell id="7nCtvXywuRJka1eDzNRe-120" value="" style="triangle;whiteSpace=wrap;html=1;fontFamily=Comic Sans MS;fontSize=14;direction=north;fillColor=#fff2cc;strokeColor=#d6b656;container=0;" vertex="1" parent="1">
          <mxGeometry x="361.5" y="271" width="20" height="20" as="geometry" />
        </mxCell>
        <mxCell id="7nCtvXywuRJka1eDzNRe-121" value="" style="triangle;whiteSpace=wrap;html=1;fontFamily=Comic Sans MS;fontSize=14;direction=north;fillColor=#fff2cc;strokeColor=#d6b656;container=0;" vertex="1" parent="1">
          <mxGeometry x="396.5" y="271" width="20" height="20" as="geometry" />
        </mxCell>
        <mxCell id="7nCtvXywuRJka1eDzNRe-122" value="" style="endArrow=classic;html=1;rounded=0;fontFamily=Comic Sans MS;fontSize=11;" edge="1" parent="1">
          <mxGeometry width="50" height="50" relative="1" as="geometry">
            <mxPoint x="348" y="115" as="sourcePoint" />
            <mxPoint x="348" y="94" as="targetPoint" />
            <Array as="points" />
          </mxGeometry>
        </mxCell>
        <mxCell id="7nCtvXywuRJka1eDzNRe-126" value="&lt;font color=&quot;#cc0000&quot; face=&quot;Comic Sans MS&quot; style=&quot;font-size: 12px;&quot;&gt;A lack of approximate relationships &lt;br&gt;(e.g, over-homogenization).&lt;/font&gt;" style="text;strokeColor=none;align=center;fillColor=none;html=1;verticalAlign=middle;whiteSpace=wrap;rounded=0;fontSize=14;fontFamily=Helvetica;" vertex="1" parent="1">
          <mxGeometry x="62" y="7" width="274.5" height="30" as="geometry" />
        </mxCell>
      </root>
    </mxGraphModel>
  </diagram>
</mxfile>
